<mxfile host="app.diagrams.net" modified="2022-02-23T18:18:02.699Z" agent="5.0 (Windows NT 10.0; Win64; x64) AppleWebKit/537.36 (KHTML, like Gecko) Chrome/98.0.4758.102 Safari/537.36" etag="Ig26A_SoM5VBmqEhO3Z0" version="16.6.2" type="github">
  <diagram id="4MNVf7tuBf64kw4feR9f" name="Page-1">
    <mxGraphModel dx="868" dy="496" grid="1" gridSize="10" guides="1" tooltips="1" connect="1" arrows="1" fold="1" page="1" pageScale="1" pageWidth="1169" pageHeight="827" math="0" shadow="0">
      <root>
        <mxCell id="0" />
        <mxCell id="1" parent="0" />
        <mxCell id="Qjkzj_dB4ohVVPnHZtF3-1" value="" style="ellipse;html=1;shape=endState;fillColor=#000000;strokeColor=#000000;" parent="1" vertex="1">
          <mxGeometry x="320" y="760" width="30" height="30" as="geometry" />
        </mxCell>
        <mxCell id="Qjkzj_dB4ohVVPnHZtF3-8" style="edgeStyle=orthogonalEdgeStyle;rounded=0;orthogonalLoop=1;jettySize=auto;html=1;exitX=0.5;exitY=1;exitDx=0;exitDy=0;entryX=0.5;entryY=0;entryDx=0;entryDy=0;strokeColor=#000000;" parent="1" source="Qjkzj_dB4ohVVPnHZtF3-2" target="Qjkzj_dB4ohVVPnHZtF3-7" edge="1">
          <mxGeometry relative="1" as="geometry" />
        </mxCell>
        <mxCell id="Qjkzj_dB4ohVVPnHZtF3-2" value="" style="ellipse;html=1;shape=startState;fillColor=#000000;strokeColor=#000000;" parent="1" vertex="1">
          <mxGeometry x="170" y="130" width="30" height="30" as="geometry" />
        </mxCell>
        <mxCell id="Qjkzj_dB4ohVVPnHZtF3-4" value="&lt;p style=&quot;margin:0px;margin-top:4px;text-align:center;&quot;&gt;&lt;b&gt;Class&lt;/b&gt;&lt;/p&gt;&lt;hr size=&quot;1&quot;/&gt;&lt;div style=&quot;height:2px;&quot;&gt;&lt;/div&gt;&lt;hr size=&quot;1&quot;/&gt;&lt;div style=&quot;height:2px;&quot;&gt;&lt;/div&gt;" style="verticalAlign=top;align=left;overflow=fill;fontSize=12;fontFamily=Helvetica;html=1;strokeColor=#000000;" parent="1" vertex="1">
          <mxGeometry x="20" y="30" width="140" height="60" as="geometry" />
        </mxCell>
        <mxCell id="Qjkzj_dB4ohVVPnHZtF3-10" style="edgeStyle=orthogonalEdgeStyle;rounded=0;orthogonalLoop=1;jettySize=auto;html=1;exitX=1;exitY=0.5;exitDx=0;exitDy=0;entryX=0;entryY=0.5;entryDx=0;entryDy=0;strokeColor=#000000;" parent="1" source="Qjkzj_dB4ohVVPnHZtF3-7" target="Qjkzj_dB4ohVVPnHZtF3-9" edge="1">
          <mxGeometry relative="1" as="geometry" />
        </mxCell>
        <mxCell id="Qjkzj_dB4ohVVPnHZtF3-40" value="Mensagem é&lt;br&gt;aberta" style="edgeLabel;html=1;align=center;verticalAlign=middle;resizable=0;points=[];" parent="Qjkzj_dB4ohVVPnHZtF3-10" vertex="1" connectable="0">
          <mxGeometry x="-0.2476" y="1" relative="1" as="geometry">
            <mxPoint x="6" y="1" as="offset" />
          </mxGeometry>
        </mxCell>
        <mxCell id="Qjkzj_dB4ohVVPnHZtF3-7" value="&lt;p style=&quot;margin: 0px ; margin-top: 4px ; text-align: center&quot;&gt;&lt;b&gt;Mensagem recebida&lt;/b&gt;&lt;/p&gt;&lt;hr size=&quot;1&quot;&gt;&lt;div style=&quot;height: 2px&quot;&gt;&lt;/div&gt;&lt;hr size=&quot;1&quot;&gt;&lt;div style=&quot;height: 2px&quot;&gt;&lt;/div&gt;" style="verticalAlign=top;align=left;overflow=fill;fontSize=12;fontFamily=Helvetica;html=1;strokeColor=#000000;" parent="1" vertex="1">
          <mxGeometry x="115" y="230" width="140" height="60" as="geometry" />
        </mxCell>
        <mxCell id="Qjkzj_dB4ohVVPnHZtF3-14" style="edgeStyle=orthogonalEdgeStyle;rounded=0;orthogonalLoop=1;jettySize=auto;html=1;exitX=0.5;exitY=1;exitDx=0;exitDy=0;strokeColor=#000000;entryX=0.505;entryY=0.455;entryDx=0;entryDy=0;entryPerimeter=0;" parent="1" source="Qjkzj_dB4ohVVPnHZtF3-9" target="Qjkzj_dB4ohVVPnHZtF3-17" edge="1">
          <mxGeometry relative="1" as="geometry">
            <mxPoint x="430" y="340" as="targetPoint" />
          </mxGeometry>
        </mxCell>
        <mxCell id="Qjkzj_dB4ohVVPnHZtF3-9" value="&lt;p style=&quot;margin: 0px ; margin-top: 4px ; text-align: center&quot;&gt;&lt;b&gt;Mensagem lida&lt;/b&gt;&lt;/p&gt;&lt;hr size=&quot;1&quot;&gt;&lt;div style=&quot;height: 2px&quot;&gt;&lt;/div&gt;&lt;hr size=&quot;1&quot;&gt;&lt;div style=&quot;height: 2px&quot;&gt;&lt;/div&gt;" style="verticalAlign=top;align=left;overflow=fill;fontSize=12;fontFamily=Helvetica;html=1;strokeColor=#000000;" parent="1" vertex="1">
          <mxGeometry x="360" y="230" width="140" height="60" as="geometry" />
        </mxCell>
        <mxCell id="Qjkzj_dB4ohVVPnHZtF3-15" value="" style="shape=line;html=1;strokeWidth=6;strokeColor=#000000;" parent="1" vertex="1">
          <mxGeometry x="210" y="40" width="150" height="10" as="geometry" />
        </mxCell>
        <mxCell id="Qjkzj_dB4ohVVPnHZtF3-22" style="edgeStyle=orthogonalEdgeStyle;rounded=0;orthogonalLoop=1;jettySize=auto;html=1;exitX=0.25;exitY=0.5;exitDx=0;exitDy=0;exitPerimeter=0;entryX=0.5;entryY=0;entryDx=0;entryDy=0;strokeColor=#000000;" parent="1" source="Qjkzj_dB4ohVVPnHZtF3-17" target="Qjkzj_dB4ohVVPnHZtF3-1" edge="1">
          <mxGeometry relative="1" as="geometry">
            <Array as="points">
              <mxPoint x="399" y="400" />
              <mxPoint x="335" y="400" />
            </Array>
          </mxGeometry>
        </mxCell>
        <mxCell id="Qjkzj_dB4ohVVPnHZtF3-41" value="Mensagem&lt;br&gt;não é respondida" style="edgeLabel;html=1;align=center;verticalAlign=middle;resizable=0;points=[];" parent="Qjkzj_dB4ohVVPnHZtF3-22" vertex="1" connectable="0">
          <mxGeometry x="-0.353" y="3" relative="1" as="geometry">
            <mxPoint as="offset" />
          </mxGeometry>
        </mxCell>
        <mxCell id="Qjkzj_dB4ohVVPnHZtF3-31" style="edgeStyle=orthogonalEdgeStyle;rounded=0;orthogonalLoop=1;jettySize=auto;html=1;exitX=0.75;exitY=0.5;exitDx=0;exitDy=0;exitPerimeter=0;strokeColor=#000000;" parent="1" source="Qjkzj_dB4ohVVPnHZtF3-17" target="Qjkzj_dB4ohVVPnHZtF3-19" edge="1">
          <mxGeometry relative="1" as="geometry" />
        </mxCell>
        <mxCell id="Qjkzj_dB4ohVVPnHZtF3-42" value="Mensagem é respondida" style="edgeLabel;html=1;align=center;verticalAlign=middle;resizable=0;points=[];" parent="Qjkzj_dB4ohVVPnHZtF3-31" vertex="1" connectable="0">
          <mxGeometry x="0.2911" y="3" relative="1" as="geometry">
            <mxPoint y="14" as="offset" />
          </mxGeometry>
        </mxCell>
        <mxCell id="Qjkzj_dB4ohVVPnHZtF3-56" style="edgeStyle=orthogonalEdgeStyle;rounded=0;orthogonalLoop=1;jettySize=auto;html=1;exitX=1;exitY=0.5;exitDx=0;exitDy=0;exitPerimeter=0;strokeColor=#000000;" parent="1" source="Qjkzj_dB4ohVVPnHZtF3-17" target="Qjkzj_dB4ohVVPnHZtF3-55" edge="1">
          <mxGeometry relative="1" as="geometry">
            <Array as="points">
              <mxPoint x="480" y="355" />
              <mxPoint x="480" y="380" />
              <mxPoint x="546" y="380" />
              <mxPoint x="546" y="350" />
              <mxPoint x="670" y="350" />
            </Array>
          </mxGeometry>
        </mxCell>
        <mxCell id="Qjkzj_dB4ohVVPnHZtF3-57" value="Mensagem é removida&lt;br&gt;sem ser respondida" style="edgeLabel;html=1;align=center;verticalAlign=middle;resizable=0;points=[];" parent="Qjkzj_dB4ohVVPnHZtF3-56" vertex="1" connectable="0">
          <mxGeometry x="0.0834" y="4" relative="1" as="geometry">
            <mxPoint as="offset" />
          </mxGeometry>
        </mxCell>
        <mxCell id="Qjkzj_dB4ohVVPnHZtF3-17" value="" style="shape=line;html=1;strokeWidth=6;strokeColor=#000000;" parent="1" vertex="1">
          <mxGeometry x="367.5" y="350" width="125" height="10" as="geometry" />
        </mxCell>
        <mxCell id="Qjkzj_dB4ohVVPnHZtF3-25" style="edgeStyle=orthogonalEdgeStyle;rounded=0;orthogonalLoop=1;jettySize=auto;html=1;exitX=0.5;exitY=1;exitDx=0;exitDy=0;entryX=0.496;entryY=0.4;entryDx=0;entryDy=0;entryPerimeter=0;strokeColor=#000000;" parent="1" source="Qjkzj_dB4ohVVPnHZtF3-19" target="Qjkzj_dB4ohVVPnHZtF3-24" edge="1">
          <mxGeometry relative="1" as="geometry" />
        </mxCell>
        <mxCell id="Qjkzj_dB4ohVVPnHZtF3-19" value="&lt;p style=&quot;margin: 0px ; margin-top: 4px ; text-align: center&quot;&gt;&lt;b&gt;Mensagem respondida&lt;/b&gt;&lt;/p&gt;&lt;hr size=&quot;1&quot;&gt;&lt;div style=&quot;height: 2px&quot;&gt;&lt;/div&gt;&lt;hr size=&quot;1&quot;&gt;&lt;div style=&quot;height: 2px&quot;&gt;&lt;/div&gt;" style="verticalAlign=top;align=left;overflow=fill;fontSize=12;fontFamily=Helvetica;html=1;strokeColor=#000000;" parent="1" vertex="1">
          <mxGeometry x="410" y="470" width="140" height="60" as="geometry" />
        </mxCell>
        <mxCell id="Qjkzj_dB4ohVVPnHZtF3-34" style="edgeStyle=orthogonalEdgeStyle;rounded=0;orthogonalLoop=1;jettySize=auto;html=1;exitX=0.75;exitY=0.5;exitDx=0;exitDy=0;exitPerimeter=0;entryX=0.25;entryY=0;entryDx=0;entryDy=0;strokeColor=#000000;" parent="1" source="Qjkzj_dB4ohVVPnHZtF3-24" target="Qjkzj_dB4ohVVPnHZtF3-32" edge="1">
          <mxGeometry relative="1" as="geometry">
            <Array as="points">
              <mxPoint x="509" y="600" />
              <mxPoint x="675" y="600" />
            </Array>
          </mxGeometry>
        </mxCell>
        <mxCell id="Qjkzj_dB4ohVVPnHZtF3-49" value="Mensagem é removida para a lixeira&lt;br&gt;após ser respondida" style="edgeLabel;html=1;align=center;verticalAlign=middle;resizable=0;points=[];" parent="Qjkzj_dB4ohVVPnHZtF3-34" vertex="1" connectable="0">
          <mxGeometry x="-0.2589" y="3" relative="1" as="geometry">
            <mxPoint as="offset" />
          </mxGeometry>
        </mxCell>
        <mxCell id="Qjkzj_dB4ohVVPnHZtF3-39" style="edgeStyle=orthogonalEdgeStyle;rounded=0;orthogonalLoop=1;jettySize=auto;html=1;exitX=0.25;exitY=0.5;exitDx=0;exitDy=0;exitPerimeter=0;entryX=1;entryY=0.5;entryDx=0;entryDy=0;strokeColor=#000000;" parent="1" source="Qjkzj_dB4ohVVPnHZtF3-24" target="Qjkzj_dB4ohVVPnHZtF3-1" edge="1">
          <mxGeometry relative="1" as="geometry">
            <Array as="points">
              <mxPoint x="451" y="630" />
              <mxPoint x="410" y="630" />
              <mxPoint x="410" y="775" />
            </Array>
          </mxGeometry>
        </mxCell>
        <mxCell id="Qjkzj_dB4ohVVPnHZtF3-48" value="Nada mais é feito" style="edgeLabel;html=1;align=center;verticalAlign=middle;resizable=0;points=[];" parent="Qjkzj_dB4ohVVPnHZtF3-39" vertex="1" connectable="0">
          <mxGeometry x="0.2355" y="1" relative="1" as="geometry">
            <mxPoint as="offset" />
          </mxGeometry>
        </mxCell>
        <mxCell id="Qjkzj_dB4ohVVPnHZtF3-24" value="" style="shape=line;html=1;strokeWidth=6;strokeColor=#000000;" parent="1" vertex="1">
          <mxGeometry x="422.5" y="560" width="115" height="10" as="geometry" />
        </mxCell>
        <mxCell id="Qjkzj_dB4ohVVPnHZtF3-46" style="edgeStyle=orthogonalEdgeStyle;rounded=0;orthogonalLoop=1;jettySize=auto;html=1;exitX=0.5;exitY=1;exitDx=0;exitDy=0;entryX=0.489;entryY=0.617;entryDx=0;entryDy=0;entryPerimeter=0;strokeColor=#000000;" parent="1" source="Qjkzj_dB4ohVVPnHZtF3-32" target="Qjkzj_dB4ohVVPnHZtF3-44" edge="1">
          <mxGeometry relative="1" as="geometry" />
        </mxCell>
        <mxCell id="Qjkzj_dB4ohVVPnHZtF3-32" value="&lt;p style=&quot;margin: 0px ; margin-top: 4px ; text-align: center&quot;&gt;&lt;b&gt;Mensagem removida&lt;/b&gt;&lt;/p&gt;&lt;hr size=&quot;1&quot;&gt;&lt;div style=&quot;height: 2px&quot;&gt;&lt;/div&gt;&lt;hr size=&quot;1&quot;&gt;&lt;div style=&quot;height: 2px&quot;&gt;&lt;/div&gt;" style="verticalAlign=top;align=left;overflow=fill;fontSize=12;fontFamily=Helvetica;html=1;strokeColor=#000000;" parent="1" vertex="1">
          <mxGeometry x="640" y="640" width="140" height="60" as="geometry" />
        </mxCell>
        <mxCell id="Qjkzj_dB4ohVVPnHZtF3-45" style="edgeStyle=orthogonalEdgeStyle;rounded=0;orthogonalLoop=1;jettySize=auto;html=1;exitX=0.25;exitY=0.5;exitDx=0;exitDy=0;exitPerimeter=0;entryX=0.5;entryY=1;entryDx=0;entryDy=0;strokeColor=#000000;" parent="1" source="Qjkzj_dB4ohVVPnHZtF3-44" target="Qjkzj_dB4ohVVPnHZtF3-1" edge="1">
          <mxGeometry relative="1" as="geometry">
            <Array as="points">
              <mxPoint x="680" y="770" />
              <mxPoint x="500" y="770" />
              <mxPoint x="500" y="810" />
              <mxPoint x="335" y="810" />
            </Array>
          </mxGeometry>
        </mxCell>
        <mxCell id="Qjkzj_dB4ohVVPnHZtF3-52" value="Nada mais é feito" style="edgeLabel;html=1;align=center;verticalAlign=middle;resizable=0;points=[];" parent="Qjkzj_dB4ohVVPnHZtF3-45" vertex="1" connectable="0">
          <mxGeometry x="-0.3348" y="-3" relative="1" as="geometry">
            <mxPoint as="offset" />
          </mxGeometry>
        </mxCell>
        <mxCell id="Qjkzj_dB4ohVVPnHZtF3-47" style="edgeStyle=orthogonalEdgeStyle;rounded=0;orthogonalLoop=1;jettySize=auto;html=1;exitX=0.75;exitY=0.5;exitDx=0;exitDy=0;exitPerimeter=0;entryX=0.686;entryY=0.017;entryDx=0;entryDy=0;strokeColor=#000000;entryPerimeter=0;" parent="1" source="Qjkzj_dB4ohVVPnHZtF3-44" target="Qjkzj_dB4ohVVPnHZtF3-7" edge="1">
          <mxGeometry relative="1" as="geometry">
            <Array as="points">
              <mxPoint x="740" y="770" />
              <mxPoint x="820" y="770" />
              <mxPoint x="820" y="210" />
              <mxPoint x="211" y="210" />
            </Array>
          </mxGeometry>
        </mxCell>
        <mxCell id="Qjkzj_dB4ohVVPnHZtF3-53" value="Mensagem é restaurada" style="edgeLabel;html=1;align=center;verticalAlign=middle;resizable=0;points=[];" parent="Qjkzj_dB4ohVVPnHZtF3-47" vertex="1" connectable="0">
          <mxGeometry x="0.3891" y="5" relative="1" as="geometry">
            <mxPoint x="-312" y="-5" as="offset" />
          </mxGeometry>
        </mxCell>
        <mxCell id="Qjkzj_dB4ohVVPnHZtF3-44" value="" style="shape=line;html=1;strokeWidth=6;strokeColor=#000000;" parent="1" vertex="1">
          <mxGeometry x="650" y="720" width="120" height="10" as="geometry" />
        </mxCell>
        <mxCell id="Qjkzj_dB4ohVVPnHZtF3-55" value="&lt;p style=&quot;margin: 0px ; margin-top: 4px ; text-align: center&quot;&gt;&lt;b&gt;Mensagem é removida&lt;/b&gt;&lt;/p&gt;&lt;hr size=&quot;1&quot;&gt;&lt;div style=&quot;height: 2px&quot;&gt;&lt;/div&gt;&lt;hr size=&quot;1&quot;&gt;&lt;div style=&quot;height: 2px&quot;&gt;&lt;/div&gt;" style="verticalAlign=top;align=left;overflow=fill;fontSize=12;fontFamily=Helvetica;html=1;strokeColor=#000000;" parent="1" vertex="1">
          <mxGeometry x="600" y="370" width="140" height="60" as="geometry" />
        </mxCell>
      </root>
    </mxGraphModel>
  </diagram>
</mxfile>
